<svg xmlns="http://www.w3.org/2000/svg" xmlns:xlink="http://www.w3.org/1999/xlink" width="101" height="101" viewBox="0 0 101 101"><defs><filter id="a" x="0" y="0" width="101" height="101" filterUnits="userSpaceOnUse"><feOffset dy="2" input="SourceAlpha"/><feGaussianBlur stdDeviation="10" result="b"/><feFlood flood-opacity="0.102"/><feComposite operator="in" in2="b"/><feComposite in="SourceGraphic"/></filter></defs><g transform="translate(-1004 -4413)"><g transform="matrix(1, 0, 0, 1, 1004, 4413)" filter="url(#a)"><path d="M20.5,41A20.5,20.5,0,1,0,0,20.5,20.5,20.5,0,0,0,20.5,41Z" transform="translate(30 28)" fill="#fff"/></g><path d="M5.537,2.244a3.523,3.523,0,0,0-1.024-.169c-.416,0-1.312.287-1.312.844V4.253H5.329V6.5H3.2V12.69H1.056V6.5H0V4.253H1.056V3.122C1.056,1.418,1.792,0,3.569,0A8.08,8.08,0,0,1,5.857.253Z" transform="translate(1051.571 4457)" fill="#080809"/></g></svg>